<?xml version="1.0" standalone="no"?>
<!DOCTYPE svg PUBLIC "-//W3C//DTD SVG 20010904//EN"
 "http://www.w3.org/TR/2001/REC-SVG-20010904/DTD/svg10.dtd">
<svg version="1.0" xmlns="http://www.w3.org/2000/svg"
 width="221.000000pt" height="193.000000pt" viewBox="0 0 221.000000 193.000000"
 preserveAspectRatio="xMidYMid meet">

<g transform="translate(0.000000,193.000000) scale(0.100000,-0.100000)"
fill="#000000" stroke="none">
<path d="M1046 1895 c-87 -31 -135 -116 -121 -212 6 -40 15 -56 55 -94 71 -70
151 -77 232 -22 68 46 97 149 64 226 -17 43 -76 93 -123 106 -48 14 -59 13
-107 -4z"/>
<path d="M578 1627 c-65 -19 -116 -55 -221 -156 -164 -157 -307 -348 -307
-410 0 -48 87 -66 241 -50 176 18 255 54 406 185 33 30 66 54 72 54 7 0 11
-32 11 -92 0 -51 3 -117 7 -147 5 -48 9 -55 37 -66 40 -17 292 -63 423 -77
l102 -12 58 39 c71 48 92 72 93 107 0 39 -33 47 -74 17 -92 -68 -82 -63 -135
-51 -74 17 -302 102 -333 123 -27 20 -38 61 -54 216 l-6 62 41 28 41 28 -7 55
c-4 42 -14 64 -41 97 -19 23 -44 44 -56 47 -51 14 -252 16 -298 3z"/>
<path d="M1843 1261 c-40 -29 -73 -90 -73 -134 1 -35 35 -102 65 -125 119 -94
289 12 261 163 -21 109 -161 163 -253 96z"/>
<path d="M603 1070 c-45 -33 -77 -95 -88 -173 -6 -40 -3 -58 21 -110 15 -34
29 -84 32 -110 3 -29 9 -46 16 -44 19 6 30 65 19 111 -12 52 0 169 27 274 10
42 18 78 16 79 -1 2 -21 -11 -43 -27z"/>
<path d="M1510 1085 c-7 -8 -8 -15 -2 -15 5 0 15 7 22 15 7 8 8 15 2 15 -5 0
-15 -7 -22 -15z"/>
<path d="M460 1001 c-28 -8 -30 -15 -10 -53 18 -37 25 -35 38 11 18 57 19 55
-28 42z"/>
<path d="M315 973 c-16 -1 -54 -6 -83 -9 l-53 -6 20 -31 c60 -99 155 -306 159
-347 4 -50 -20 -127 -107 -339 -28 -69 -51 -127 -51 -129 0 -8 152 7 205 21
45 11 50 15 53 42 2 17 21 135 42 263 l39 233 -20 52 c-11 29 -45 98 -75 155
-59 109 -53 104 -129 95z"/>
<path d="M125 918 c12 -29 38 -84 55 -123 59 -126 69 -171 54 -228 -14 -55
-57 -157 -120 -287 -23 -47 -45 -96 -49 -109 -7 -24 -7 -24 51 -17 32 4 59 8
59 9 1 1 20 47 43 102 69 167 102 265 102 302 0 33 -110 271 -171 369 -35 56
-52 43 -24 -18z"/>
<path d="M2010 941 c-8 -6 -36 -13 -62 -16 -26 -4 -48 -12 -48 -17 0 -6 -11
-25 -24 -42 -76 -100 -139 -314 -107 -365 7 -11 27 -13 98 -8 130 10 246 28
262 41 23 18 10 258 -17 319 -12 26 -28 50 -36 53 -8 3 -18 14 -21 25 -7 21
-22 24 -45 10z"/>
<path d="M2174 778 c3 -29 6 -73 7 -98 l1 -45 14 45 c12 39 12 51 -1 97 -9 29
-18 53 -22 53 -3 0 -3 -24 1 -52z"/>
<path d="M1933 462 l-133 -15 0 -116 c0 -64 4 -121 8 -127 4 -6 26 -14 50 -18
l42 -6 0 110 c0 103 1 110 20 110 19 0 20 -7 20 -130 l0 -130 45 0 c43 0 45 1
64 46 16 35 71 261 71 289 0 7 -36 4 -187 -13z"/>
<path d="M1774 119 c-52 -41 -59 -55 -32 -62 17 -5 30 2 53 28 18 18 44 37 58
40 34 9 25 25 -12 25 -16 0 -45 -13 -67 -31z"/>
<path d="M85 112 c-68 -4 -77 -18 -19 -30 51 -11 70 -8 78 13 7 19 0 21 -59
17z"/>
<path d="M335 84 c-49 -8 -110 -17 -134 -20 -33 -4 -41 -8 -32 -17 14 -14 308
-17 384 -4 59 10 57 28 -4 44 -56 15 -102 14 -214 -3z"/>
<path d="M1884 93 c-42 -5 -72 -38 -57 -61 23 -36 157 -1 183 48 10 19 8 20
-42 18 -29 0 -67 -3 -84 -5z"/>
</g>
</svg>
