<svg width="220" height="219" viewBox="0 0 220 219" fill="none" xmlns="http://www.w3.org/2000/svg">
<path d="M19.8915 130.014C20.6897 129.216 21.1642 128.094 21.1642 126.972C21.1642 125.829 20.7112 124.729 19.8915 123.931C19.0933 123.132 17.9716 122.658 16.8498 122.658C15.7065 122.658 14.6063 123.111 13.8082 123.931C13.01 124.729 12.5354 125.851 12.5354 126.972C12.5354 128.116 12.9884 129.216 13.8082 130.014C14.6063 130.812 15.7281 131.287 16.8498 131.287C17.9716 131.265 19.0933 130.812 19.8915 130.014Z" fill="#4F4F4F" fill-opacity="0.3"/>
<path d="M51.342 98.5414C53.0462 96.8372 53.0462 94.1191 51.3635 92.4149C49.6809 90.7323 46.9413 90.7323 45.2587 92.4149L45.2371 92.4365C43.5544 94.1191 43.5544 96.8587 45.2371 98.5414C46.9197 100.246 49.6594 100.246 51.342 98.5414Z" fill="#4F4F4F" fill-opacity="0.3"/>
<path d="M35.6179 114.289C37.3221 112.584 37.322 109.866 35.6394 108.162C33.9568 106.479 31.2171 106.479 29.5345 108.162L29.5129 108.184C27.8303 109.866 27.8303 112.606 29.5129 114.289C31.1956 115.971 33.9352 115.971 35.6179 114.289Z" fill="#4F4F4F" fill-opacity="0.3"/>
<path d="M67.0932 82.8145C67.8913 82.0163 68.3659 80.8945 68.3659 79.7728C68.3659 78.6295 67.9129 77.5294 67.0932 76.7312C66.295 75.933 65.1732 75.4584 64.0515 75.4584C62.9082 75.4584 61.808 75.9114 61.0098 76.7312C60.2116 77.5294 59.7371 78.651 59.7371 79.7728C59.7371 80.9161 60.1901 82.0163 61.0098 82.8145C61.808 83.6126 62.9297 84.0872 64.0515 84.0872C65.1732 84.0656 66.2734 83.6126 67.0932 82.8145Z" fill="#4F4F4F" fill-opacity="0.3"/>
<path d="M82.8172 67.0885C83.6154 66.2903 84.09 65.1686 84.09 64.0468C84.09 62.9035 83.637 61.8033 82.8172 61.0052C82.0191 60.207 80.8974 59.7324 79.7756 59.7324C78.6323 59.7324 77.5321 60.1854 76.7339 61.0052C75.9358 61.8033 75.4612 62.9251 75.4612 64.0468C75.4612 65.1902 75.9142 66.2903 76.7339 67.0885C77.5321 67.8867 78.6539 68.3613 79.7756 68.3613C80.8974 68.3397 82.0191 67.8867 82.8172 67.0885Z" fill="#4F4F4F" fill-opacity="0.3"/>
<path d="M114.268 35.6368C115.972 33.9326 115.972 31.2145 114.289 29.5103C112.606 27.8277 109.867 27.8277 108.184 29.5103L108.163 29.5319C106.48 31.2145 106.48 33.9541 108.163 35.6368C109.845 37.3194 112.585 37.3194 114.268 35.6368Z" fill="#4F4F4F" fill-opacity="0.3"/>
<path d="M98.5436 51.3629C100.248 49.6587 100.248 46.9407 98.5652 45.2365C96.8826 43.5538 94.1429 43.5538 92.4603 45.2365L92.4387 45.258C90.7561 46.9406 90.7561 49.6803 92.4387 51.3629C94.1214 53.0456 96.861 53.0456 98.5436 51.3629Z" fill="#4F4F4F" fill-opacity="0.3"/>
<path d="M130.019 19.8888C130.817 19.0906 131.291 17.9689 131.291 16.8471C131.291 15.7038 130.838 14.6036 130.019 13.8055C129.22 13.0073 128.099 12.5327 126.977 12.5327C125.834 12.5327 124.734 12.9857 123.935 13.8055C123.137 14.6036 122.663 15.7254 122.663 16.8471C122.663 17.9905 123.116 19.0906 123.935 19.8888C124.734 20.687 125.855 21.1616 126.977 21.1616C128.099 21.1616 129.199 20.687 130.019 19.8888Z" fill="#4F4F4F" fill-opacity="0.3"/>
<path d="M7.3561 117.481C8.15426 116.683 8.62884 115.561 8.62884 114.44C8.62884 113.296 8.17584 112.196 7.3561 111.398C6.55793 110.6 5.43617 110.125 4.31442 110.125C3.1711 110.125 2.07091 110.578 1.27275 111.398C0.474578 112.196 0 113.318 0 114.44C0 115.583 0.453006 116.683 1.27275 117.481C2.07091 118.279 3.19267 118.754 4.31442 118.754C5.43617 118.732 6.55793 118.279 7.3561 117.481Z" fill="#4F4F4F" fill-opacity="0.3"/>
<path d="M38.8066 86.0297C40.5108 84.3255 40.5108 81.6075 38.8281 79.9033C37.1455 78.2206 34.4058 78.2206 32.7232 79.9033L32.7017 79.9248C31.019 81.6074 31.019 84.3471 32.7017 86.0297C34.3843 87.7124 37.124 87.7124 38.8066 86.0297Z" fill="#4F4F4F" fill-opacity="0.3"/>
<path d="M23.0824 101.756C24.7866 100.051 24.7866 97.3334 23.104 95.6292C21.4214 93.9465 18.6817 93.9465 16.9991 95.6292L16.9775 95.6507C15.2949 97.3334 15.2949 100.073 16.9775 101.756C18.6602 103.438 21.3998 103.438 23.0824 101.756Z" fill="#4F4F4F" fill-opacity="0.3"/>
<path d="M54.5578 70.2818C55.3559 69.4836 55.8305 68.3618 55.8305 67.2401C55.8305 66.0968 55.3775 64.9966 54.5578 64.1985C53.7596 63.4003 52.6378 62.9257 51.5161 62.9257C50.3728 62.9257 49.2726 63.3787 48.4744 64.1985C47.6762 64.9966 47.2017 66.1183 47.2017 67.2401C47.2017 68.3834 47.6547 69.4836 48.4744 70.2818C49.2726 71.0799 50.3943 71.5545 51.5161 71.5545C52.6378 71.5545 53.7596 71.0799 54.5578 70.2818Z" fill="#4F4F4F" fill-opacity="0.3"/>
<path d="M70.2819 54.5558C71.08 53.7576 71.5546 52.6359 71.5546 51.5141C71.5546 50.3708 71.1016 49.2706 70.2819 48.4725C69.4621 47.6743 68.362 47.1997 67.2402 47.1997C66.0969 47.1997 64.9967 47.6527 64.1986 48.4725C63.4004 49.2706 62.9258 50.3924 62.9258 51.5141C62.9258 52.6574 63.3788 53.7576 64.1986 54.5558C64.9967 55.354 66.1185 55.8285 67.2402 55.8285C68.362 55.807 69.4837 55.354 70.2819 54.5558Z" fill="#4F4F4F" fill-opacity="0.3"/>
<path d="M101.732 23.104C103.436 21.3998 103.436 18.6818 101.754 16.9776C100.071 15.295 97.3314 15.295 95.6488 16.9776L95.6272 16.9992C93.9446 18.6818 93.9446 21.4214 95.6272 23.104C97.3098 24.7867 100.049 24.7867 101.732 23.104Z" fill="#4F4F4F" fill-opacity="0.3"/>
<path d="M86.0082 38.8302C87.7124 37.126 87.7124 34.4079 86.0298 32.7037C84.3472 31.0211 81.6075 31.0211 79.9249 32.7037L79.9033 32.7253C78.2207 34.4079 78.2207 37.1476 79.9033 38.8302C81.5859 40.5128 84.3256 40.5128 86.0082 38.8302Z" fill="#4F4F4F" fill-opacity="0.3"/>
<path d="M117.483 7.3561C118.281 6.55793 118.756 5.43617 118.756 4.31442C118.756 3.1711 118.303 2.07091 117.483 1.27275C116.685 0.474578 115.563 0 114.442 0C113.298 0 112.198 0.453006 111.4 1.27275C110.602 2.07091 110.127 3.19267 110.127 4.31442C110.127 5.45774 110.58 6.55793 111.4 7.3561C112.198 8.15426 113.32 8.62884 114.442 8.62884C115.563 8.62884 116.664 8.15426 117.483 7.3561Z" fill="#4F4F4F" fill-opacity="0.3"/>
<path d="M32.4215 142.527C33.2197 141.729 33.6943 140.607 33.6943 139.485C33.6943 138.342 33.2412 137.242 32.4215 136.444C31.6233 135.645 30.5016 135.171 29.3799 135.171C28.2365 135.171 27.1363 135.624 26.3382 136.444C25.54 137.242 25.0654 138.363 25.0654 139.485C25.0654 140.629 25.5184 141.729 26.3382 142.527C27.1363 143.325 28.2581 143.8 29.3799 143.8C30.5016 143.8 31.6233 143.347 32.4215 142.527Z" fill="#4F4F4F" fill-opacity="0.3"/>
<path d="M63.872 111.075C65.5762 109.371 65.5762 106.653 63.8936 104.949C62.211 103.266 59.4713 103.266 57.7887 104.949L57.7671 104.97C56.0845 106.653 56.0845 109.393 57.7671 111.075C59.4497 112.758 62.1894 112.758 63.872 111.075Z" fill="#4F4F4F" fill-opacity="0.3"/>
<path d="M48.1491 126.824C49.8533 125.119 49.8533 122.401 48.1707 120.697C46.488 119.014 43.7484 119.014 42.0658 120.697L42.0442 120.719C40.3616 122.401 40.3616 125.141 42.0442 126.824C43.7268 128.506 46.4665 128.506 48.1491 126.824Z" fill="#4F4F4F" fill-opacity="0.3"/>
<path d="M79.6232 95.3484C80.4214 94.5502 80.8959 93.4285 80.8959 92.3068C80.8959 91.1635 80.4429 90.0633 79.6232 89.2651C78.825 88.4669 77.7033 87.9924 76.5815 87.9924C75.4382 87.9924 74.338 88.4454 73.5398 89.2651C72.7417 90.0633 72.2671 91.185 72.2671 92.3068C72.2671 93.4285 72.7201 94.5502 73.5398 95.3484C74.338 96.1466 75.4598 96.6212 76.5815 96.6212C77.7033 96.5996 78.8034 96.1466 79.6232 95.3484Z" fill="#4F4F4F" fill-opacity="0.3"/>
<path d="M95.3473 79.6223C96.1454 78.8241 96.6201 77.7024 96.6201 76.5806C96.6201 75.4373 96.167 74.3371 95.3473 73.539C94.5491 72.7408 93.4274 72.2662 92.3056 72.2662C91.1623 72.2662 90.0621 72.7192 89.264 73.539C88.4658 74.3371 87.9912 75.4589 87.9912 76.5806C87.9912 77.7239 88.4442 78.8241 89.264 79.6223C90.0621 80.4205 91.1839 80.895 92.3056 80.895C93.4274 80.8735 94.5491 80.4205 95.3473 79.6223Z" fill="#4F4F4F" fill-opacity="0.3"/>
<path d="M126.798 48.1708C128.502 46.4666 128.502 43.7485 126.819 42.0443C125.136 40.3617 122.397 40.3617 120.714 42.0443L120.693 42.0659C119.01 43.7485 119.01 46.4881 120.693 48.1708C122.375 49.8534 125.115 49.8534 126.798 48.1708Z" fill="#4F4F4F" fill-opacity="0.3"/>
<path d="M111.075 63.8979C112.779 62.1937 112.779 59.4756 111.096 57.7714C109.414 56.0888 106.674 56.0888 104.991 57.7714L104.97 57.793C103.287 59.4756 103.287 62.2153 104.97 63.8979C106.652 65.5805 109.392 65.5805 111.075 63.8979Z" fill="#4F4F4F" fill-opacity="0.3"/>
<path d="M142.524 32.423C143.322 31.6248 143.796 30.5031 143.796 29.3813C143.796 28.238 143.343 27.1378 142.524 26.3396C141.725 25.5415 140.604 25.0669 139.482 25.0669C138.339 25.0669 137.238 25.5199 136.44 26.3396C135.642 27.1594 135.167 28.2596 135.167 29.3813C135.167 30.5031 135.62 31.6248 136.44 32.423C137.238 33.2212 138.36 33.6957 139.482 33.6957C140.604 33.6957 141.725 33.2212 142.524 32.423Z" fill="#4F4F4F" fill-opacity="0.3"/>
<path d="M44.9554 155.06C45.7536 154.261 46.2282 153.14 46.2282 152.018C46.2282 150.896 45.7752 149.774 44.9554 148.976C44.1573 148.178 43.0355 147.704 41.9138 147.704C40.7705 147.704 39.6703 148.157 38.8721 148.976C38.0739 149.774 37.5994 150.896 37.5994 152.018C37.5994 153.161 38.0524 154.261 38.8721 155.06C39.6703 155.858 40.792 156.332 41.9138 156.332C43.0355 156.332 44.1573 155.879 44.9554 155.06Z" fill="#4F4F4F" fill-opacity="0.3"/>
<path d="M76.4059 123.608C78.1101 121.904 78.1102 119.186 76.4275 117.482C74.7449 115.799 72.0052 115.799 70.3226 117.482L70.301 117.503C68.6184 119.186 68.6184 121.925 70.301 123.608C71.9837 125.291 74.7233 125.291 76.4059 123.608Z" fill="#4F4F4F" fill-opacity="0.3"/>
<path d="M60.6818 139.355C62.386 137.651 62.386 134.933 60.7034 133.229C59.0208 131.546 56.2811 131.546 54.5985 133.229L54.5769 133.25C52.8943 134.933 52.8943 137.673 54.5769 139.355C56.2595 141.038 58.9992 141.038 60.6818 139.355Z" fill="#4F4F4F" fill-opacity="0.3"/>
<path d="M92.1571 107.881C92.9553 107.083 93.4299 105.961 93.4299 104.84C93.4299 103.696 92.9769 102.596 92.1571 101.798C91.359 101 90.2372 100.525 89.1154 100.525C87.9721 100.525 86.872 100.978 86.0738 101.798C85.2756 102.596 84.801 103.718 84.801 104.84C84.801 105.983 85.2541 107.083 86.0738 107.881C86.872 108.679 87.9937 109.154 89.1154 109.154C90.2372 109.132 91.3374 108.679 92.1571 107.881Z" fill="#4F4F4F" fill-opacity="0.3"/>
<path d="M107.881 92.155C108.679 91.3568 109.154 90.2351 109.154 89.1133C109.154 87.97 108.701 86.8698 107.881 86.0717C107.083 85.2735 105.961 84.7989 104.84 84.7989C103.696 84.7989 102.596 85.2519 101.798 86.0717C101 86.8698 100.525 87.9916 100.525 89.1133C100.525 90.2567 100.978 91.3568 101.798 92.155C102.596 92.9532 103.718 93.4278 104.84 93.4278C105.961 93.4062 107.062 92.9532 107.881 92.155Z" fill="#4F4F4F" fill-opacity="0.3"/>
<path d="M139.331 60.6824C141.036 58.9782 141.036 56.2601 139.353 54.5559C137.67 52.8733 134.931 52.8733 133.248 54.5559L133.227 54.5774C131.544 56.2601 131.544 58.9998 133.227 60.6824C134.909 62.3866 137.649 62.3866 139.331 60.6824Z" fill="#4F4F4F" fill-opacity="0.3"/>
<path d="M123.608 76.4296C125.312 74.7254 125.312 72.0073 123.629 70.3031C121.947 68.6205 119.207 68.6205 117.524 70.3031L117.503 70.3247C115.82 72.0074 115.82 74.747 117.503 76.4296C119.185 78.1122 121.903 78.1122 123.608 76.4296Z" fill="#4F4F4F" fill-opacity="0.3"/>
<path d="M155.058 44.9557C155.856 44.1575 156.33 43.0358 156.33 41.914C156.33 40.7707 155.877 39.6705 155.058 38.8724C154.259 38.0742 153.138 37.5996 152.016 37.5996C150.873 37.5996 149.772 38.0526 148.974 38.8724C148.176 39.6705 147.701 40.7923 147.701 41.914C147.701 43.0358 148.154 44.1575 148.974 44.9557C149.772 45.7539 150.894 46.2285 152.016 46.2285C153.159 46.2069 154.259 45.7539 155.058 44.9557Z" fill="#4F4F4F" fill-opacity="0.3"/>
<path d="M57.4909 167.594C58.289 166.796 58.7636 165.674 58.7636 164.552C58.7636 163.409 58.3106 162.309 57.4909 161.511C56.6927 160.712 55.5709 160.238 54.4492 160.238C53.3059 160.238 52.2057 160.691 51.4075 161.511C50.6093 162.309 50.1348 163.43 50.1348 164.552C50.1348 165.696 50.5878 166.796 51.4075 167.594C52.2057 168.392 53.3274 168.867 54.4492 168.867C55.5709 168.867 56.6927 168.414 57.4909 167.594Z" fill="#4F4F4F" fill-opacity="0.3"/>
<path d="M88.9413 136.142C90.6455 134.438 90.6455 131.72 88.9629 130.016C87.2803 128.333 84.5406 128.333 82.858 130.016L82.8364 130.037C81.1538 131.72 81.1538 134.46 82.8364 136.142C84.5191 137.825 87.2587 137.825 88.9413 136.142Z" fill="#4F4F4F" fill-opacity="0.3"/>
<path d="M73.2172 151.868C74.9214 150.164 74.9214 147.446 73.2388 145.742C71.5562 144.059 68.8165 144.059 67.1339 145.742L67.1123 145.764C65.4297 147.446 65.4297 150.186 67.1123 151.868C68.7949 153.573 71.5346 153.573 73.2172 151.868Z" fill="#4F4F4F" fill-opacity="0.3"/>
<path d="M104.667 120.416C105.465 119.617 105.94 118.496 105.94 117.374C105.94 116.252 105.487 115.13 104.667 114.332C103.869 113.534 102.747 113.06 101.625 113.06C100.482 113.06 99.3819 113.513 98.5838 114.332C97.7856 115.13 97.311 116.252 97.311 117.374C97.311 118.517 97.764 119.617 98.5838 120.416C99.3819 121.214 100.504 121.688 101.625 121.688C102.769 121.667 103.869 121.214 104.667 120.416Z" fill="#4F4F4F" fill-opacity="0.3"/>
<path d="M120.417 104.668C121.215 103.87 121.689 102.748 121.689 101.627C121.689 100.483 121.236 99.383 120.417 98.5849C119.618 97.7867 118.497 97.3121 117.375 97.3121C116.232 97.3121 115.131 97.7651 114.333 98.5849C113.535 99.383 113.061 100.505 113.061 101.627C113.061 102.77 113.514 103.87 114.333 104.668C115.131 105.466 116.253 105.941 117.375 105.941C118.497 105.941 119.597 105.488 120.417 104.668Z" fill="#4F4F4F" fill-opacity="0.3"/>
<path d="M151.867 73.2167C153.571 71.5125 153.571 68.7944 151.888 67.0902C150.206 65.4076 147.466 65.4076 145.784 67.0902L145.762 67.1117C144.079 68.7943 144.079 71.534 145.762 73.2167C147.445 74.8993 150.184 74.8993 151.867 73.2167Z" fill="#4F4F4F" fill-opacity="0.3"/>
<path d="M136.143 88.9639C137.847 87.2597 137.847 84.5416 136.165 82.8374C134.482 81.1548 131.742 81.1548 130.06 82.8374L130.038 82.859C128.355 84.5416 128.355 87.2813 130.038 88.9639C131.721 90.6465 134.439 90.6465 136.143 88.9639Z" fill="#4F4F4F" fill-opacity="0.3"/>
<path d="M167.593 57.4898C168.391 56.6916 168.866 55.5698 168.866 54.4481C168.866 53.3048 168.413 52.2046 167.593 51.4064C166.795 50.6082 165.673 50.1337 164.551 50.1337C163.408 50.1337 162.308 50.5867 161.51 51.4064C160.711 52.2046 160.237 53.3263 160.237 54.4481C160.237 55.5914 160.69 56.6916 161.51 57.4898C162.308 58.2879 163.429 58.7625 164.551 58.7625C165.695 58.7409 166.795 58.2879 167.593 57.4898Z" fill="#4F4F4F" fill-opacity="0.3"/>
<path d="M70.0241 180.127C70.8222 179.329 71.2968 178.207 71.2968 177.085C71.2968 175.942 70.8438 174.842 70.0241 174.043C69.2259 173.245 68.1041 172.771 66.9824 172.771C65.8391 172.771 64.7389 173.224 63.9407 174.043C63.1425 174.842 62.668 175.963 62.668 177.085C62.668 178.228 63.121 179.329 63.9407 180.127C64.7389 180.925 65.8606 181.4 66.9824 181.4C68.1041 181.4 69.2043 180.925 70.0241 180.127Z" fill="#4F4F4F" fill-opacity="0.3"/>
<path d="M101.475 148.675C103.179 146.971 103.179 144.253 101.496 142.549C99.8135 140.866 97.0738 140.866 95.3912 142.549L95.3696 142.57C93.687 144.253 93.687 146.993 95.3696 148.675C97.0523 150.358 99.7919 150.358 101.475 148.675Z" fill="#4F4F4F" fill-opacity="0.3"/>
<path d="M85.7504 164.401C87.4546 162.697 87.4546 159.979 85.772 158.275C84.0894 156.592 81.3497 156.592 79.6671 158.275L79.6455 158.297C77.9629 159.979 77.9629 162.719 79.6455 164.401C81.3281 166.084 84.0462 166.084 85.7504 164.401Z" fill="#4F4F4F" fill-opacity="0.3"/>
<path d="M117.2 132.948C117.999 132.15 118.473 131.028 118.473 129.907C118.473 128.763 118.02 127.663 117.2 126.865C116.402 126.067 115.28 125.592 114.159 125.592C113.015 125.592 111.915 126.045 111.117 126.865C110.319 127.663 109.844 128.785 109.844 129.907C109.844 131.05 110.297 132.15 111.117 132.948C111.915 133.747 113.037 134.221 114.159 134.221C115.28 134.221 116.402 133.747 117.2 132.948Z" fill="#4F4F4F" fill-opacity="0.3"/>
<path d="M132.95 117.201C133.748 116.403 134.223 115.281 134.223 114.16C134.223 113.016 133.77 111.916 132.95 111.118C132.152 110.32 131.03 109.845 129.908 109.845C128.765 109.845 127.665 110.298 126.866 111.118C126.068 111.916 125.594 113.038 125.594 114.16C125.594 115.303 126.047 116.403 126.866 117.201C127.665 117.999 128.786 118.474 129.908 118.474C131.03 118.474 132.13 118.021 132.95 117.201Z" fill="#4F4F4F" fill-opacity="0.3"/>
<path d="M164.4 85.7496C166.104 84.0454 166.104 81.3273 164.422 79.6231C162.739 77.9405 159.999 77.9405 158.317 79.6231L158.295 79.6447C156.613 81.3273 156.613 84.067 158.295 85.7496C159.978 87.4322 162.717 87.4322 164.4 85.7496Z" fill="#4F4F4F" fill-opacity="0.3"/>
<path d="M148.655 101.476C150.359 99.7716 150.359 97.0535 148.677 95.3493C146.994 93.6667 144.254 93.6667 142.572 95.3493L142.55 95.3709C140.867 97.0535 140.867 99.7932 142.55 101.476C144.254 103.18 146.972 103.18 148.655 101.476Z" fill="#4F4F4F" fill-opacity="0.3"/>
<path d="M180.126 70.0227C180.924 69.2246 181.399 68.1028 181.399 66.981C181.399 65.8377 180.946 64.7375 180.126 63.9394C179.328 63.1412 178.206 62.6666 177.084 62.6666C175.941 62.6666 174.841 63.1196 174.043 63.9394C173.245 64.7375 172.77 65.8593 172.77 66.981C172.77 68.1244 173.223 69.2246 174.043 70.0227C174.841 70.8209 175.963 71.2955 177.084 71.2955C178.206 71.2739 179.328 70.8209 180.126 70.0227Z" fill="#4F4F4F" fill-opacity="0.3"/>
<path d="M82.5548 192.661C83.353 191.863 83.8276 190.741 83.8276 189.62C83.8276 188.476 83.3746 187.376 82.5548 186.578C81.7567 185.78 80.6349 185.305 79.5132 185.305C78.3698 185.305 77.2696 185.758 76.4715 186.578C75.6733 187.376 75.1987 188.498 75.1987 189.62C75.1987 190.763 75.6517 191.863 76.4715 192.661C77.2696 193.459 78.3914 193.934 79.5132 193.934C80.6349 193.934 81.7351 193.459 82.5548 192.661Z" fill="#4F4F4F" fill-opacity="0.3"/>
<path d="M114.005 161.21C115.71 159.506 115.709 156.787 114.027 155.083C112.344 153.401 109.605 153.401 107.922 155.083L107.9 155.105C106.218 156.787 106.218 159.527 107.9 161.21C109.583 162.892 112.323 162.892 114.005 161.21Z" fill="#4F4F4F" fill-opacity="0.3"/>
<path d="M98.2602 176.936C99.9644 175.232 99.9644 172.514 98.2817 170.809C96.5991 169.127 93.8595 169.127 92.1769 170.809L92.1553 170.831C90.4727 172.514 90.4727 175.253 92.1553 176.936C93.8595 178.618 96.5776 178.618 98.2602 176.936Z" fill="#4F4F4F" fill-opacity="0.3"/>
<path d="M129.731 145.462C130.529 144.664 131.004 143.542 131.004 142.42C131.004 141.277 130.551 140.177 129.731 139.378C128.933 138.58 127.811 138.106 126.689 138.106C125.546 138.106 124.446 138.559 123.648 139.378C122.85 140.177 122.375 141.298 122.375 142.42C122.375 143.563 122.828 144.664 123.648 145.462C124.446 146.26 125.568 146.734 126.689 146.734C127.811 146.734 128.933 146.281 129.731 145.462Z" fill="#4F4F4F" fill-opacity="0.3"/>
<path d="M145.459 129.736C146.258 128.937 146.732 127.816 146.732 126.694C146.732 125.551 146.279 124.45 145.459 123.652C144.661 122.854 143.539 122.379 142.418 122.379C141.274 122.379 140.174 122.833 139.376 123.652C138.578 124.45 138.103 125.572 138.103 126.694C138.103 127.816 138.556 128.937 139.376 129.736C140.174 130.534 141.296 131.008 142.418 131.008C143.561 131.008 144.661 130.534 145.459 129.736Z" fill="#4F4F4F" fill-opacity="0.3"/>
<path d="M176.931 98.284C178.635 96.5798 178.635 93.8618 176.952 92.1576C175.27 90.4749 172.53 90.4749 170.848 92.1576L170.826 92.1791C169.143 93.8617 169.143 96.6014 170.826 98.284C172.509 99.9667 175.227 99.9667 176.931 98.284Z" fill="#4F4F4F" fill-opacity="0.3"/>
<path d="M161.185 114.01C162.889 112.306 162.889 109.588 161.206 107.883C159.524 106.201 156.784 106.201 155.101 107.883L155.08 107.905C153.397 109.588 153.397 112.327 155.08 114.01C156.784 115.693 159.502 115.693 161.185 114.01Z" fill="#4F4F4F" fill-opacity="0.3"/>
<path d="M192.657 82.5571C193.455 81.759 193.93 80.6372 193.93 79.5155C193.93 78.3721 193.477 77.272 192.657 76.4738C191.859 75.6756 190.737 75.201 189.615 75.201C188.472 75.201 187.372 75.6541 186.574 76.4738C185.775 77.272 185.301 78.3937 185.301 79.5155C185.301 80.6588 185.754 81.759 186.574 82.5571C187.372 83.3553 188.493 83.8299 189.615 83.8299C190.737 83.8083 191.859 83.3553 192.657 82.5571Z" fill="#4F4F4F" fill-opacity="0.3"/>
<path d="M95.09 205.194C95.8882 204.396 96.3627 203.274 96.3627 202.153C96.3627 201.009 95.9097 199.909 95.09 199.111C94.2918 198.313 93.1701 197.838 92.0483 197.838C90.905 197.838 89.8048 198.291 89.0067 199.111C88.2085 199.909 87.7339 201.031 87.7339 202.153C87.7339 203.296 88.1869 204.396 89.0067 205.194C89.8048 205.992 90.9266 206.467 92.0483 206.467C93.1701 206.467 94.2702 205.992 95.09 205.194Z" fill="#4F4F4F" fill-opacity="0.3"/>
<path d="M126.54 173.743C128.245 172.038 128.245 169.32 126.562 167.616C124.879 165.933 122.14 165.933 120.457 167.616L120.436 167.638C118.753 169.32 118.753 172.06 120.436 173.743C122.118 175.425 124.836 175.425 126.54 173.743Z" fill="#4F4F4F" fill-opacity="0.3"/>
<path d="M110.795 189.469C112.5 187.765 112.5 185.047 110.817 183.342C109.134 181.66 106.395 181.66 104.712 183.342L104.69 183.364C103.008 185.047 103.008 187.786 104.69 189.469C106.395 191.151 109.113 191.151 110.795 189.469Z" fill="#4F4F4F" fill-opacity="0.3"/>
<path d="M142.266 157.995C143.064 157.197 143.539 156.075 143.539 154.953C143.539 153.81 143.086 152.709 142.266 151.911C141.468 151.113 140.346 150.639 139.225 150.639C138.081 150.639 136.981 151.092 136.183 151.911C135.385 152.709 134.91 153.831 134.91 154.953C134.91 156.096 135.363 157.197 136.183 157.995C136.981 158.793 138.103 159.267 139.225 159.267C140.346 159.267 141.468 158.814 142.266 157.995Z" fill="#4F4F4F" fill-opacity="0.3"/>
<path d="M157.994 142.268C158.793 141.47 159.267 140.349 159.267 139.227C159.267 138.084 158.814 136.983 157.994 136.185C157.196 135.387 156.075 134.912 154.953 134.912C153.81 134.912 152.709 135.365 151.911 136.185C151.113 137.005 150.638 138.105 150.638 139.227C150.638 140.37 151.091 141.47 151.911 142.268C152.709 143.067 153.831 143.541 154.953 143.541C156.096 143.541 157.196 143.067 157.994 142.268Z" fill="#4F4F4F" fill-opacity="0.3"/>
<path d="M189.445 110.817C191.149 109.113 191.149 106.395 189.467 104.69C187.784 103.008 185.044 103.008 183.362 104.69L183.34 104.712C181.657 106.395 181.657 109.134 183.34 110.817C185.044 112.5 187.762 112.5 189.445 110.817Z" fill="#4F4F4F" fill-opacity="0.3"/>
<path d="M173.721 126.543C175.425 124.839 175.425 122.121 173.742 120.417C172.06 118.734 169.32 118.734 167.637 120.417L167.616 120.438C165.933 122.121 165.933 124.86 167.616 126.543C169.32 128.226 172.038 128.226 173.721 126.543Z" fill="#4F4F4F" fill-opacity="0.3"/>
<path d="M205.192 95.0901C205.99 94.2919 206.465 93.1701 206.465 92.0484C206.465 90.9051 206.012 89.805 205.192 89.0068C204.394 88.2086 203.272 87.734 202.15 87.734C201.007 87.734 199.907 88.1871 199.109 89.0068C198.311 89.805 197.836 90.9267 197.836 92.0484C197.836 93.1917 198.289 94.2919 199.109 95.0901C199.907 95.8882 201.029 96.3628 202.15 96.3628C203.272 96.3412 204.394 95.8882 205.192 95.0901Z" fill="#4F4F4F" fill-opacity="0.3"/>
<path d="M107.603 217.726C108.401 216.928 108.876 215.806 108.876 214.685C108.876 213.541 108.423 212.441 107.603 211.643C106.805 210.845 105.683 210.37 104.561 210.37C103.44 210.37 102.318 210.823 101.52 211.643C100.722 212.441 100.247 213.563 100.247 214.685C100.247 215.828 100.7 216.928 101.52 217.726C102.318 218.524 103.44 218.999 104.561 218.999C105.705 218.999 106.805 218.524 107.603 217.726Z" fill="#4F4F4F" fill-opacity="0.3"/>
<path d="M139.079 186.274C140.783 184.57 140.783 181.852 139.1 180.148C137.418 178.465 134.678 178.465 132.995 180.148L132.974 180.169C131.291 181.852 131.291 184.592 132.974 186.274C134.657 187.957 137.375 187.957 139.079 186.274Z" fill="#4F4F4F" fill-opacity="0.3"/>
<path d="M123.33 202.001C125.034 200.296 125.034 197.578 123.351 195.874C121.668 194.191 118.929 194.191 117.246 195.874L117.225 195.896C115.542 197.578 115.542 200.318 117.225 202.001C118.929 203.683 121.647 203.683 123.33 202.001Z" fill="#4F4F4F" fill-opacity="0.3"/>
<path d="M154.805 170.526C155.603 169.728 156.078 168.606 156.078 167.485C156.078 166.341 155.625 165.241 154.805 164.443C154.007 163.645 152.885 163.17 151.764 163.17C150.642 163.17 149.52 163.623 148.722 164.443C147.924 165.241 147.449 166.363 147.449 167.485C147.449 168.628 147.902 169.728 148.722 170.526C149.52 171.325 150.642 171.799 151.764 171.799C152.885 171.799 154.007 171.346 154.805 170.526Z" fill="#4F4F4F" fill-opacity="0.3"/>
<path d="M170.529 154.8C171.327 154.002 171.802 152.88 171.802 151.759C171.802 150.615 171.349 149.515 170.529 148.717C169.709 147.919 168.609 147.444 167.487 147.444C166.344 147.444 165.244 147.897 164.446 148.717C163.647 149.515 163.173 150.637 163.173 151.759C163.173 152.902 163.626 154.002 164.446 154.8C165.244 155.599 166.366 156.073 167.487 156.073C168.631 156.073 169.731 155.599 170.529 154.8Z" fill="#4F4F4F" fill-opacity="0.3"/>
<path d="M201.979 123.349C203.683 121.645 203.683 118.926 202.001 117.222C200.318 115.54 197.578 115.54 195.896 117.222L195.874 117.244C194.192 118.927 194.192 121.666 195.874 123.349C197.578 125.031 200.297 125.031 201.979 123.349Z" fill="#4F4F4F" fill-opacity="0.3"/>
<path d="M186.255 139.075C187.959 137.371 187.959 134.653 186.277 132.948C184.594 131.266 181.855 131.266 180.172 132.948L180.15 132.97C178.468 134.653 178.468 137.392 180.15 139.075C181.833 140.758 184.573 140.758 186.255 139.075Z" fill="#4F4F4F" fill-opacity="0.3"/>
<path d="M217.73 107.601C218.529 106.803 219.003 105.681 219.003 104.559C219.003 103.437 218.55 102.316 217.73 101.517C216.911 100.719 215.81 100.245 214.689 100.245C213.545 100.245 212.445 100.698 211.647 101.517C210.849 102.337 210.374 103.437 210.374 104.559C210.374 105.702 210.827 106.803 211.647 107.601C212.445 108.399 213.567 108.874 214.689 108.874C215.81 108.874 216.932 108.421 217.73 107.601Z" fill="#4F4F4F" fill-opacity="0.3"/>
</svg>
