<svg width="32" height="32" viewBox="0 0 32 32" fill="none" xmlns="http://www.w3.org/2000/svg">
<g clip-path="url(#clip0_13_536)">
<path d="M0.291626 15.6642C0.291626 7.10483 7.23041 0.166046 15.7898 0.166046C24.3492 0.166046 31.288 7.10483 31.288 15.6642C31.288 24.2236 24.3492 31.1624 15.7898 31.1624C7.23041 31.1624 0.291626 24.2236 0.291626 15.6642Z" fill="#70798E"/>
<path fill-rule="evenodd" clip-rule="evenodd" d="M19.1171 5.39404C19.1513 5.03904 18.8912 4.72354 18.5362 4.68936C18.1812 4.65518 17.8657 4.91525 17.8315 5.27025L17.5568 8.123C17.5227 8.47797 17.7827 8.79349 18.1377 8.82765C18.4927 8.86187 18.8082 8.60176 18.8424 8.24679L19.1171 5.39404ZM23.3628 10.8725L14.7478 15.55C14.5759 15.6438 14.3783 15.6796 14.1844 15.6523C13.9904 15.625 13.8105 15.5358 13.6712 15.3982C13.532 15.2605 13.4408 15.0816 13.4112 14.888C13.3816 14.6945 13.4151 14.4965 13.5069 14.3235L14.3809 12.6663C14.605 12.2414 14.6786 11.7532 14.5896 11.2811C14.5007 10.8091 14.2544 10.3811 13.8911 10.0669C13.8045 9.99246 13.7032 9.93699 13.5939 9.90406C13.4845 9.87113 13.3694 9.8615 13.2561 9.87577C13.1428 9.89011 13.0338 9.92795 12.936 9.98704C12.8382 10.0461 12.7539 10.125 12.6885 10.2186L10.269 13.6832C10.2389 13.7138 10.217 13.749 10.1951 13.7891L9.8257 14.318L7.73325 17.0383C7.29782 17.6515 6.99709 18.3501 6.85102 19.088C6.70498 19.8259 6.71682 20.5863 6.88582 21.3192L7.14652 22.4485C7.46436 23.8252 8.31605 25.0192 9.51418 25.7679C10.7124 26.5166 12.3167 26.8472 13.6934 26.5293L13.7599 26.5122C16.3537 26.1876 18.8684 25.3883 21.1775 24.1517C21.4615 24.0149 21.6852 23.7783 21.8059 23.4871C21.9266 23.1958 21.9358 22.8703 21.8317 22.5727C21.7861 22.3688 21.6858 22.1811 21.5415 22.03C21.3973 21.8788 21.2146 21.7698 21.013 21.7146C20.9866 21.7083 20.9624 21.6949 20.9429 21.676C20.9234 21.6571 20.9093 21.6333 20.9021 21.6071C20.8949 21.5809 20.8949 21.5533 20.902 21.527C20.9092 21.5008 20.9233 21.477 20.9428 21.4581C21.1507 21.2685 21.2956 21.0199 21.3579 20.7455C21.4203 20.4712 21.3972 20.1844 21.2916 19.9236C21.1973 19.7019 21.0513 19.5059 20.8657 19.3523C20.68 19.1987 20.4603 19.0918 20.2249 19.0406C20.1982 19.0344 20.1738 19.0211 20.1541 19.0022C20.1344 18.9832 20.1202 18.9593 20.1129 18.933C20.1057 18.9066 20.1057 18.8788 20.113 18.8524C20.1203 18.826 20.1345 18.8021 20.1543 18.7832C20.3675 18.5941 20.5172 18.3436 20.5826 18.0661C20.648 17.7886 20.6261 17.4976 20.5198 17.2331C20.416 16.9873 20.2425 16.7772 20.0208 16.6288C19.799 16.4804 19.5386 16.4002 19.2718 16.3981C19.2513 16.3982 19.2313 16.3913 19.2153 16.3787C19.1991 16.3661 19.1877 16.3484 19.1829 16.3284C19.1781 16.3085 19.1801 16.2876 19.1887 16.269C19.1972 16.2504 19.2118 16.2352 19.23 16.2259L24.6152 13.302C24.9227 13.1416 25.1602 12.8732 25.2818 12.5484C25.4034 12.2236 25.4006 11.8652 25.2739 11.5423C25.1998 11.3665 25.0897 11.2082 24.9507 11.0775C24.8117 10.9469 24.6468 10.8468 24.4668 10.7837C24.2868 10.7206 24.0956 10.6959 23.9054 10.7112C23.7152 10.7265 23.5304 10.7814 23.3628 10.8725ZM14.9513 6.22964C15.2559 6.04399 15.6532 6.14034 15.8389 6.44485L16.7713 7.97421C16.957 8.27875 16.8606 8.67609 16.5561 8.86174C16.2516 9.0474 15.8542 8.95105 15.6686 8.64651L14.7362 7.11717C14.5505 6.81263 14.6469 6.4153 14.9513 6.22964ZM21.6919 7.66264C21.9323 7.3991 21.9136 6.99066 21.65 6.75031C21.3866 6.50999 20.9781 6.52875 20.7378 6.79222L19.5306 8.11557C19.2903 8.3791 19.3091 8.78755 19.5726 9.0279C19.836 9.26825 20.2445 9.24946 20.4848 8.98599L21.6919 7.66264Z" fill="white"/>
</g>
<defs>
<clipPath id="clip0_13_536">
<rect width="30.9963" height="30.9963" fill="white" transform="translate(0.291443 0.166046)"/>
</clipPath>
</defs>
</svg>
