<svg width="71" height="96" viewBox="0 0 71 96" fill="none" xmlns="http://www.w3.org/2000/svg">
<path fill-rule="evenodd" clip-rule="evenodd" d="M62.5 11.25C62.5 17.049 58.0228 21.75 52.5 21.75C46.9772 21.75 42.5 17.049 42.5 11.25C42.5 5.45101 46.9772 0.75 52.5 0.75C58.0228 0.75 62.5 5.45101 62.5 11.25ZM37.2646 66.375H55L60.0001 66.3751L50.6251 90H61.4585L69.2309 70.4136C71.9754 63.4973 67.1359 55.8751 60.0001 55.8751L47.1393 55.8751L56.3152 29.3796L50.9947 27.0158C50.9947 27.0158 49.5851 26.4675 48.545 26.1109C46.4686 25.399 43.526 24.5169 39.9989 23.8115C33.0009 22.4119 23.3967 21.6461 13.6272 24.577L8.81958 26.0193L11.5668 36.1153L16.3744 34.673C22.7839 32.7502 29.3071 32.7974 34.8415 33.5682L27.9893 52.0694C25.4454 58.9379 30.2552 66.3436 37.2646 66.375ZM49.4999 74.25C47.1836 86.2318 37.0948 95.25 25 95.25C11.1929 95.25 0 83.4975 0 69C0 54.5025 11.1929 42.75 25 42.75L21.0533 53.8009C14.6837 55.6201 10 61.7357 10 69C10 77.6985 16.7157 84.75 25 84.75C31.5311 84.75 37.0873 80.3673 39.1465 74.25H49.4999Z" fill="black"/>
</svg>
